<svg width="30" height="30" viewBox="0 0 30 30" fill="none" xmlns="http://www.w3.org/2000/svg">
<path fill-rule="evenodd" clip-rule="evenodd" d="M25.9375 5V20.7325C25.9375 21.3125 25.7075 21.8688 25.2962 22.2788L19.7787 27.7963C19.3687 28.2075 18.8125 28.4375 18.2325 28.4375H7.5C6.58875 28.4375 5.71375 28.075 5.06875 27.4313C4.425 26.7863 4.0625 25.9113 4.0625 25V5C4.0625 4.08875 4.425 3.21375 5.06875 2.56875C5.71375 1.925 6.58875 1.5625 7.5 1.5625H22.5C23.4112 1.5625 24.2862 1.925 24.9312 2.56875C25.575 3.21375 25.9375 4.08875 25.9375 5ZM18.125 26.25L23.75 20.625H19.375C18.685 20.625 18.125 21.185 18.125 21.875V26.25ZM10 8.4375H20C20.5175 8.4375 20.9375 8.0175 20.9375 7.5C20.9375 6.9825 20.5175 6.5625 20 6.5625H10C9.4825 6.5625 9.0625 6.9825 9.0625 7.5C9.0625 8.0175 9.4825 8.4375 10 8.4375ZM10 23.4375H14.375C14.8925 23.4375 15.3125 23.0175 15.3125 22.5C15.3125 21.9825 14.8925 21.5625 14.375 21.5625H10C9.4825 21.5625 9.0625 21.9825 9.0625 22.5C9.0625 23.0175 9.4825 23.4375 10 23.4375ZM10 18.4375H16.25C16.7675 18.4375 17.1875 18.0175 17.1875 17.5C17.1875 16.9825 16.7675 16.5625 16.25 16.5625H10C9.4825 16.5625 9.0625 16.9825 9.0625 17.5C9.0625 18.0175 9.4825 18.4375 10 18.4375ZM10 13.4375H20C20.5175 13.4375 20.9375 13.0175 20.9375 12.5C20.9375 11.9825 20.5175 11.5625 20 11.5625H10C9.4825 11.5625 9.0625 11.9825 9.0625 12.5C9.0625 13.0175 9.4825 13.4375 10 13.4375Z" fill="#1E2124"/>
</svg>
