<svg width="50" height="50" viewBox="0 0 50 50" fill="none" xmlns="http://www.w3.org/2000/svg">
<path fill-rule="evenodd" clip-rule="evenodd" d="M9.4543 14.2774C8.81352 14.2774 8.18713 14.4675 7.65434 14.8235C7.12155 15.1795 6.70629 15.6854 6.46107 16.2775C6.21586 16.8695 6.1517 17.5209 6.27671 18.1493C6.40172 18.7778 6.71028 19.3551 7.16338 19.8082C7.61648 20.2613 8.19377 20.5699 8.82223 20.6949C9.4507 20.8199 10.1021 20.7557 10.6941 20.5105C11.2861 20.2653 11.7921 19.85 12.1481 19.3172C12.5041 18.7845 12.6941 18.1581 12.6941 17.5173C12.6942 17.0918 12.6104 16.6705 12.4475 16.2774C12.2847 15.8844 12.0461 15.5272 11.7452 15.2263C11.4444 14.9255 11.0872 14.6868 10.6941 14.524C10.3011 14.3612 9.87976 14.2774 9.4543 14.2774ZM33.347 29.3956H27.7782V46.4372H33.347V29.3962V29.3956ZM10.6407 40.4373H16.6406V46.4372H10.6406L10.6407 40.4373ZM19.4251 36.1466H24.9938V46.4372H19.4251V36.1466ZM26.5296 21.8147L24.7319 20.0171L33.8372 17.5773L31.3975 26.6826L29.5996 24.885L13.6407 37.7735L26.5296 21.8147ZM33.8372 14.6811C33.5537 14.9645 33.3596 15.3249 33.279 15.7175C33.1984 16.1102 33.2347 16.5179 33.3835 16.8901L34.942 16.4726L34.5244 18.0311C34.8678 18.1685 35.242 18.2104 35.6073 18.1523C35.9725 18.0942 36.3152 17.9383 36.599 17.7011C36.8828 17.4639 37.0971 17.1543 37.2191 16.8051C37.3411 16.456 37.3663 16.0803 37.2919 15.718C37.2176 15.3557 37.0465 15.0202 36.7969 14.7473C36.5473 14.4744 36.2284 14.2741 35.8742 14.1678C35.5199 14.0616 35.1435 14.0532 34.7848 14.1436C34.4262 14.234 34.0987 14.4199 33.8372 14.6814V14.6811ZM34.504 21.2924C34.504 21.0852 34.5863 20.8865 34.7328 20.74C34.8793 20.5934 35.0781 20.5111 35.2853 20.5111C35.4925 20.5111 35.6912 20.5934 35.8377 20.74C35.9842 20.8865 36.0665 21.0852 36.0665 21.2924V27.9142C36.0665 28.1214 35.9842 28.3201 35.8377 28.4666C35.6912 28.6131 35.4925 28.6954 35.2853 28.6954C35.0781 28.6954 34.8793 28.6131 34.7328 28.4666C34.5863 28.3201 34.504 28.1214 34.504 27.9142V21.2922V21.2924ZM40.4483 16.9106C40.2411 16.9106 40.0424 16.8283 39.8959 16.6818C39.7494 16.5353 39.6671 16.3366 39.6671 16.1294C39.6671 15.9222 39.7494 15.7235 39.8959 15.577C40.0424 15.4305 40.2411 15.3481 40.4483 15.3481H47.0703C47.2775 15.3481 47.4762 15.4305 47.6227 15.577C47.7693 15.7235 47.8516 15.9222 47.8516 16.1294C47.8516 16.3366 47.7693 16.5353 47.6227 16.6818C47.4762 16.8283 47.2775 16.9106 47.0703 16.9106H40.4483ZM36.0666 10.9664C36.0666 11.1736 35.9843 11.3723 35.8378 11.5188C35.6913 11.6653 35.4926 11.7477 35.2854 11.7477C35.0782 11.7477 34.8794 11.6653 34.7329 11.5188C34.5864 11.3723 34.5041 11.1736 34.5041 10.9664V4.34424C34.5041 4.13704 34.5864 3.93832 34.7329 3.79181C34.8794 3.6453 35.0782 3.56299 35.2854 3.56299C35.4926 3.56299 35.6913 3.6453 35.8378 3.79181C35.9843 3.93832 36.0666 4.13704 36.0666 4.34424V10.9662V10.9664ZM30.1224 15.348C30.3296 15.348 30.5283 15.4304 30.6748 15.5769C30.8213 15.7234 30.9036 15.9221 30.9036 16.1293C30.9036 16.3365 30.8213 16.5352 30.6748 16.6817C30.5283 16.8282 30.3296 16.9105 30.1224 16.9105H23.5004C23.2932 16.9105 23.0945 16.8282 22.948 16.6817C22.8015 16.5352 22.7191 16.3365 22.7191 16.1293C22.7191 15.9221 22.8015 15.7234 22.948 15.5769C23.0945 15.4304 23.2932 15.348 23.5004 15.348H30.1224ZM28.3714 9.21523C27.109 10.4736 26.2165 12.0546 25.7912 13.7855H28.5061C28.8617 12.7588 29.4457 11.8262 30.214 11.0578C30.9823 10.2895 31.915 9.70555 32.9417 9.3499V6.63506C31.2107 7.06034 29.6298 7.95285 28.3714 9.21523ZM37.6292 25.6234C39.3593 25.1959 40.9398 24.3039 42.2 23.0437C43.4602 21.7836 44.3522 20.2031 44.7797 18.473H42.0648C41.7092 19.4997 41.1252 20.4324 40.3568 21.2007C39.5885 21.9691 38.6558 22.5531 37.629 22.9087V25.6235L37.6292 25.6234ZM44.7797 13.7855C44.3522 12.0554 43.4602 10.475 42.2 9.21477C40.9399 7.95459 39.3594 7.06258 37.6293 6.63506V9.3499C38.656 9.70555 39.5887 10.2895 40.3571 11.0579C41.1254 11.8262 41.7094 12.7589 42.065 13.7856L44.7797 13.7855ZM9.4543 22.7707C7.63134 22.7708 5.87362 23.4491 4.5232 24.6737C3.17279 25.8982 2.32629 27.5814 2.14844 29.3957H16.7601C16.5822 27.5815 15.7357 25.8983 14.3853 24.6737C13.0349 23.4491 11.2772 22.7708 9.4543 22.7707ZM17.5227 23.5366C16.6184 23.5355 15.7239 23.723 14.8962 24.0871L14.9051 24.0951C16.3839 25.4327 17.3177 27.2685 17.5279 29.2514C17.5368 29.2991 17.5413 29.3475 17.5413 29.3961H18.3987L21.8237 25.1552C20.6349 24.1101 19.1055 23.5347 17.5227 23.537V23.5366ZM17.5227 16.4461C17.0157 16.4461 16.5201 16.5964 16.0986 16.8781C15.6771 17.1597 15.3486 17.56 15.1546 18.0284C14.9606 18.4968 14.9098 19.0122 15.0087 19.5094C15.1076 20.0066 15.3518 20.4633 15.7102 20.8218C16.0687 21.1802 16.5254 21.4243 17.0227 21.5232C17.5199 21.6221 18.0353 21.5713 18.5036 21.3773C18.972 21.1833 19.3723 20.8548 19.6539 20.4332C19.9355 20.0117 20.0859 19.5161 20.0858 19.0092C20.0858 18.6726 20.0195 18.3393 19.8907 18.0283C19.7619 17.7173 19.5731 17.4348 19.3351 17.1968C19.0971 16.9588 18.8145 16.77 18.5035 16.6412C18.1926 16.5124 17.8593 16.4461 17.5227 16.4461Z" fill="black"/>
</svg>
