<svg width="50" height="50" viewBox="0 0 50 50" fill="none" xmlns="http://www.w3.org/2000/svg">
<path fill-rule="evenodd" clip-rule="evenodd" d="M38.6499 7.42717L46.5302 2.93703C46.8568 2.751 47.2602 2.98537 47.2602 3.36125V45.3606C47.2602 45.6295 47.0409 45.8488 46.7719 45.8488H38.8916C38.6227 45.8488 38.4034 45.6295 38.4034 45.3606V44.4716C40.3068 42.0082 41.4401 38.9195 41.4401 35.5657C41.4401 32.212 40.3068 29.1233 38.4034 26.6599V7.85149C38.4035 7.67121 38.4934 7.51643 38.6499 7.42717ZM31.0372 2.56857C30.6701 2.48459 30.4405 2.11867 30.5246 1.75148C30.6086 1.3843 30.9745 1.15471 31.3416 1.23879L35.9265 2.29348C36.2937 2.37756 36.5233 2.74338 36.4392 3.11057L35.3843 7.69563C35.3002 8.06281 34.9344 8.2924 34.5672 8.20832C34.2 8.12424 33.9705 7.75842 34.0545 7.39123L34.7712 4.2758L3.74565 21.0351C3.41381 21.2135 3.00014 21.0892 2.82172 20.7573C2.6433 20.4255 2.76762 20.0118 3.09946 19.8334L33.8593 3.21779L31.0372 2.56857ZM26.86 26.2898C21.737 26.2898 17.584 30.4427 17.584 35.5657C17.584 40.6889 21.7369 44.8417 26.86 44.8417C31.9831 44.8417 36.136 40.6889 36.136 35.5657C36.136 30.4426 31.9831 26.2898 26.86 26.2898ZM27.5545 41.0091L27.5727 41.7619C27.5815 42.138 27.2838 42.45 26.9078 42.4589C26.5317 42.4678 26.2197 42.17 26.2108 41.7941L26.1921 41.0216C25.3453 40.8751 24.7655 40.4394 24.1523 39.861C23.878 39.6029 23.8649 39.1713 24.1229 38.897C24.381 38.6227 24.8125 38.6096 25.0869 38.8676C25.6556 39.4042 26.0473 39.7083 26.8599 39.7083C27.8332 39.7083 28.8538 39.0519 28.8538 38.0009C28.8538 36.9498 27.8332 36.2934 26.8599 36.2934C25.1367 36.2934 23.4987 35.0283 23.4987 33.2187C23.4988 31.6789 24.7089 30.4914 26.1673 30.2099L26.1472 29.3696C26.1384 28.9935 26.4361 28.6815 26.8121 28.6726C27.1881 28.6638 27.5001 28.9614 27.509 29.3375L27.5303 30.2297C28.3179 30.4047 29.3544 30.8743 29.8041 31.5586C30.0106 31.8727 29.9233 32.2947 29.6092 32.5012C29.2951 32.7076 28.8731 32.6203 28.6665 32.3063C28.4022 31.904 27.3319 31.5085 26.8599 31.5085C25.8925 31.5085 24.8632 32.1662 24.8632 33.2187C24.8632 34.2697 25.8866 34.9261 26.8599 34.9261C28.5867 34.9261 30.2211 36.1942 30.2211 38.0008C30.2212 39.5384 29.0106 40.7272 27.5545 41.0091ZM26.86 22.3528C19.5627 22.3528 13.647 28.2684 13.647 35.5656C13.647 42.8629 19.5626 48.7785 26.86 48.7785C34.1574 48.7785 40.073 42.8629 40.073 35.5656C40.073 28.2684 34.1574 22.3528 26.86 22.3528ZM26.86 46.2088C20.9821 46.2088 16.2168 41.4436 16.2168 35.5656C16.2168 29.6878 20.9822 24.9225 26.86 24.9225C32.7378 24.9225 37.5032 29.6878 37.5032 35.5656C37.5032 41.4435 32.7379 46.2088 26.86 46.2088ZM6.70639 23.4119C6.54975 23.5012 6.45981 23.656 6.45991 23.8363V45.3605C6.45981 45.6294 6.67914 45.8488 6.94819 45.8488H14.8285C15.0974 45.8488 15.3167 45.6295 15.3167 45.3606V44.4716C13.4133 42.0082 12.28 38.9194 12.28 35.5656C12.28 32.2119 13.4133 29.1232 15.3167 26.6597V19.3461C15.3168 18.9702 14.9134 18.7357 14.5868 18.9217C11.9599 20.4185 9.33315 21.9153 6.70639 23.4119ZM22.6782 15.4196C22.5215 15.5088 22.4316 15.6636 22.4316 15.8439V21.6713C23.8282 21.2264 25.316 20.9856 26.86 20.9856C28.404 20.9856 29.8918 21.2264 31.2884 21.6713V11.3537C31.2885 10.9778 30.8851 10.7433 30.5584 10.9294C27.9317 12.426 25.3049 13.9228 22.6782 15.4196Z" fill="#1E2124"/>
</svg>
