<svg width="30" height="30" viewBox="0 0 30 30" fill="none" xmlns="http://www.w3.org/2000/svg">
<g clip-path="url(#clip0_2870_2748)">
<path d="M18.7434 2.7625L14.9996 0.625L11.2559 2.7625L14.9996 4.90625L18.7434 2.7625Z" fill="#1E2124"/>
<path d="M14.375 5.9876L10.625 3.8501V8.1251L14.375 10.2688V5.9876Z" fill="#1E2124"/>
<path d="M15.625 10.2688L19.375 8.1251V3.8501L15.625 5.9876V10.2688Z" fill="#1E2124"/>
<path d="M2.63752 17.5001H2.72502C2.88911 17.4769 3.03726 17.3894 3.13688 17.257C3.2365 17.1245 3.27945 16.9579 3.25627 16.7938C3.17012 16.1998 3.12626 15.6004 3.12502 15.0001C3.1225 13.034 3.60972 11.0983 4.54267 9.3677C5.47563 7.6371 6.82494 6.16612 8.46877 5.08759C8.60801 4.99642 8.70533 4.85367 8.73932 4.69075C8.77331 4.52783 8.74119 4.35808 8.65002 4.21884C8.60488 4.14989 8.5466 4.09052 8.47851 4.04409C8.41042 3.99767 8.33385 3.96512 8.25318 3.94829C8.09026 3.9143 7.92051 3.94642 7.78127 4.03759C5.96372 5.23051 4.47199 6.85743 3.44081 8.77139C2.40963 10.6853 1.8715 12.826 1.87502 15.0001C1.8776 15.6568 1.92563 16.3125 2.01877 16.9626C2.03985 17.1117 2.11405 17.2482 2.22774 17.3469C2.34142 17.4457 2.48693 17.5001 2.63752 17.5001Z" fill="#1E2124"/>
<path d="M17.9679 26.4998C16.0203 26.9999 13.9779 26.9999 12.0304 26.4998C11.8696 26.4584 11.6989 26.4825 11.5559 26.5669C11.4129 26.6513 11.3093 26.789 11.2679 26.9498C11.2264 27.1106 11.2505 27.2812 11.3349 27.4242C11.4193 27.5672 11.5571 27.6709 11.7179 27.7123C13.8708 28.2623 16.1274 28.2623 18.2804 27.7123C18.36 27.6918 18.4348 27.6558 18.5005 27.6064C18.5662 27.5569 18.6215 27.495 18.6633 27.4242C18.7051 27.3534 18.7325 27.2751 18.744 27.1937C18.7555 27.1123 18.7509 27.0294 18.7304 26.9498C18.7098 26.8702 18.6738 26.7954 18.6244 26.7297C18.575 26.664 18.5131 26.6087 18.4423 26.5669C18.3715 26.5251 18.2932 26.4977 18.2118 26.4861C18.1304 26.4746 18.0475 26.4793 17.9679 26.4998Z" fill="#1E2124"/>
<path d="M21.5318 5.08759C23.1757 6.16611 24.525 7.63709 25.4579 9.3677C26.3909 11.0983 26.8781 13.034 26.8756 15.0001C26.874 15.5983 26.8302 16.1956 26.7443 16.7876C26.732 16.8693 26.7359 16.9527 26.756 17.0329C26.776 17.113 26.8118 17.1885 26.8612 17.2547C26.9106 17.321 26.9727 17.3768 27.0438 17.4189C27.1149 17.461 27.1937 17.4886 27.2756 17.5001H27.3631C27.5147 17.5016 27.6618 17.4479 27.7767 17.349C27.8917 17.2501 27.9668 17.1128 27.9881 16.9626C28.0791 16.3124 28.1251 15.6566 28.1256 15.0001C28.1291 12.826 27.591 10.6853 26.5598 8.77138C25.5286 6.85743 24.0369 5.23051 22.2193 4.03758C22.1504 3.99244 22.0732 3.96132 21.9922 3.946C21.9113 3.93068 21.8281 3.93146 21.7474 3.94829C21.6667 3.96512 21.5902 3.99767 21.5221 4.04409C21.454 4.09051 21.3957 4.14989 21.3506 4.21883C21.3054 4.28778 21.2743 4.36494 21.259 4.44591C21.2437 4.52688 21.2444 4.61008 21.2613 4.69075C21.2781 4.77142 21.3107 4.84798 21.3571 4.91607C21.4035 4.98416 21.4629 5.04244 21.5318 5.08759Z" fill="#1E2124"/>
<path d="M4.99961 19.375L1.25586 21.5125L4.99961 23.6562L8.74336 21.5125L4.99961 19.375Z" fill="#1E2124"/>
<path d="M0.625 26.8751L4.375 29.0188V24.7376L0.625 22.6001V26.8751Z" fill="#1E2124"/>
<path d="M5.625 29.0188L9.375 26.8751V22.6001L5.625 24.7376V29.0188Z" fill="#1E2124"/>
<path d="M24.9996 19.375L21.2559 21.5125L24.9996 23.6562L28.7434 21.5125L24.9996 19.375Z" fill="#1E2124"/>
<path d="M20.625 26.8751L24.375 29.0188V24.7376L20.625 22.6001V26.8751Z" fill="#1E2124"/>
<path d="M25.625 24.7376V29.0188L29.375 26.8751V22.6001L25.625 24.7376Z" fill="#1E2124"/>
</g>
<defs>
<clipPath id="clip0_2870_2748">
<rect width="30" height="30" fill="white"/>
</clipPath>
</defs>
</svg>
