<svg width="30" height="30" viewBox="0 0 30 30" fill="none" xmlns="http://www.w3.org/2000/svg">
<path d="M5.625 21.5625H2.34375C2.08487 21.5625 1.875 21.7724 1.875 22.0312V26.7188C1.875 26.9776 2.08487 27.1875 2.34375 27.1875H5.625C5.88388 27.1875 6.09375 26.9776 6.09375 26.7188V22.0312C6.09375 21.7724 5.88388 21.5625 5.625 21.5625Z" fill="#1E2124"/>
<path d="M13.125 19.2188H9.84375C9.58487 19.2188 9.375 19.4286 9.375 19.6875V26.7188C9.375 26.9776 9.58487 27.1875 9.84375 27.1875H13.125C13.3839 27.1875 13.5938 26.9776 13.5938 26.7188V19.6875C13.5938 19.4286 13.3839 19.2188 13.125 19.2188Z" fill="#1E2124"/>
<path d="M20.625 16.4062H17.3438C17.0849 16.4062 16.875 16.6161 16.875 16.875V26.7188C16.875 26.9776 17.0849 27.1875 17.3438 27.1875H20.625C20.8839 27.1875 21.0938 26.9776 21.0938 26.7188V16.875C21.0938 16.6161 20.8839 16.4062 20.625 16.4062Z" fill="#1E2124"/>
<path d="M27.6562 11.7188H24.375C24.1161 11.7188 23.9062 11.9286 23.9062 12.1875V26.7188C23.9062 26.9776 24.1161 27.1875 24.375 27.1875H27.6562C27.9151 27.1875 28.125 26.9776 28.125 26.7188V12.1875C28.125 11.9286 27.9151 11.7188 27.6562 11.7188Z" fill="#1E2124"/>
<path d="M28.1767 2.55481L22.5001 2.81262C22.41 2.81738 22.3231 2.84808 22.25 2.90103C22.1769 2.95397 22.1206 3.0269 22.0879 3.11107C22.0552 3.19523 22.0476 3.28704 22.0658 3.37545C22.0841 3.46387 22.1274 3.54514 22.1908 3.60949L23.3908 4.80949C20.9907 7.18682 18.4061 9.37022 15.6611 11.3392C10.6501 15.0001 1.87515 16.8751 1.77671 16.8751C1.65239 16.8844 1.53686 16.9428 1.45555 17.0373C1.37423 17.1318 1.33379 17.2547 1.34311 17.379C1.35244 17.5033 1.41077 17.6189 1.50527 17.7002C1.59977 17.7815 1.7227 17.8219 1.84702 17.8126C6.06577 18.0704 12.2111 17.1517 16.6173 14.9486C20.264 13.1774 23.5089 10.6775 26.1517 7.60324L27.6001 9.05168C27.6643 9.11652 27.7459 9.16124 27.8351 9.18036C27.9243 9.19948 28.0171 9.19218 28.1022 9.15934C28.1873 9.1265 28.2609 9.06955 28.3141 8.99548C28.3673 8.92141 28.3978 8.83342 28.4017 8.74231L28.6689 3.04231C28.6716 2.97717 28.6607 2.91218 28.6368 2.8515C28.613 2.79083 28.5767 2.73579 28.5304 2.68991C28.4841 2.64403 28.4287 2.60832 28.3678 2.58506C28.3069 2.56179 28.2418 2.55149 28.1767 2.55481Z" fill="#1E2124"/>
</svg>
