<svg xmlns="http://www.w3.org/2000/svg" width="23" height="21" viewBox="0 0 23 21" fill="none">
  <path d="M19.6446 17.8747H16.3973V13.0142C16.3973 11.8552 16.3757 10.3632 14.7084 10.3632C13.0171 10.3632 12.7583 11.626 12.7583 12.9299V17.8744H9.5111V7.87933H12.6284V9.24526H12.6721C12.9841 8.73543 13.4349 8.31602 13.9765 8.03169C14.5182 7.74737 15.1304 7.60877 15.7479 7.63067C19.0392 7.63067 19.646 9.69978 19.646 12.3916L19.6446 17.8747ZM5.84697 6.51315C4.80621 6.51331 3.96235 5.70704 3.96217 4.71233C3.962 3.71763 4.80552 2.91111 5.84629 2.91095C6.88705 2.9107 7.73091 3.71697 7.73109 4.71168C7.73118 5.18936 7.53273 5.64751 7.17939 5.98535C6.82605 6.32319 6.34677 6.51304 5.84697 6.51315ZM7.47066 17.8748H4.21995V7.87933H7.47057V17.8747L7.47066 17.8748ZM21.2635 0.0286088H2.58821C1.70557 0.0191175 0.981734 0.694884 0.970947 1.53847V19.4618C0.981392 20.3058 1.70514 20.9822 2.58813 20.9734H21.2635C22.1484 20.9838 22.875 20.3074 22.8872 19.4618V1.53708C22.8746 0.691856 22.148 0.0161719 21.2635 0.0272179" fill="white"/>
</svg>