<svg xmlns="http://www.w3.org/2000/svg" width="20" height="20" viewBox="0 0 20 20" fill="none">
  <path d="M7.08317 15.8346H6.6665C3.33317 15.8346 1.6665 15.0013 1.6665 10.8346V6.66797C1.6665 3.33464 3.33317 1.66797 6.6665 1.66797H13.3332C16.6665 1.66797 18.3332 3.33464 18.3332 6.66797V10.8346C18.3332 14.168 16.6665 15.8346 13.3332 15.8346H12.9165C12.6582 15.8346 12.4082 15.9596 12.2498 16.168L10.9998 17.8346C10.4498 18.568 9.54984 18.568 8.99984 17.8346L7.74984 16.168C7.6165 15.9846 7.30817 15.8346 7.08317 15.8346Z" stroke="#1E2124" stroke-width="1.5" stroke-miterlimit="10" stroke-linecap="round" stroke-linejoin="round"/>
  <path d="M13.3303 9.16667H13.3378" stroke="#1E2124" stroke-width="2" stroke-linecap="round" stroke-linejoin="round"/>
  <path d="M9.99632 9.16667H10.0038" stroke="#1E2124" stroke-width="2" stroke-linecap="round" stroke-linejoin="round"/>
  <path d="M6.66209 9.16667H6.66957" stroke="#1E2124" stroke-width="2" stroke-linecap="round" stroke-linejoin="round"/>
</svg>