<svg width="100" height="34" viewBox="0 0 100 34" fill="none" xmlns="http://www.w3.org/2000/svg">
<rect width="34" height="34" rx="4" fill="#1E2124"/>
<rect x="9.36768" y="20.1758" width="2.35404" height="6.78516" fill="white"/>
<rect x="14.145" y="14.2266" width="3.32335" height="9.83157" fill="white"/>
<rect x="19.8916" y="7.57812" width="4.70807" height="13.5703" fill="white"/>
<path d="M88.5361 31.8933C86.4444 31.8933 84.5002 31.5447 82.7035 30.8474C80.9336 30.1502 79.4721 29.0642 78.319 27.5893C77.1927 26.1144 76.5089 24.2372 76.2676 21.9578H83.5884C83.7762 22.7087 84.1248 23.3254 84.6343 23.8081C85.1438 24.264 85.774 24.5992 86.5248 24.8138C87.3025 25.0283 88.1338 25.1356 89.0188 25.1356C89.5551 25.1356 90.1048 25.0819 90.668 24.9747C91.2311 24.8674 91.7004 24.6663 92.0758 24.3713C92.4781 24.0763 92.6792 23.6472 92.6792 23.0841C92.6792 22.6819 92.5585 22.3601 92.3172 22.1187C92.1027 21.8505 91.7809 21.636 91.3518 21.4751C90.9495 21.2874 90.44 21.1265 89.8233 20.9924C89.5819 20.9388 89.3272 20.8852 89.059 20.8315C88.8176 20.7779 88.5763 20.7243 88.3349 20.6706C88.0936 20.617 87.8388 20.5634 87.5707 20.5097C86.203 20.2147 84.889 19.8795 83.6287 19.5041C82.3683 19.1019 81.2554 18.5789 80.29 17.9354C79.3246 17.2918 78.5604 16.4336 77.9972 15.361C77.4341 14.2883 77.1525 12.9341 77.1525 11.2983C77.1525 9.79659 77.4207 8.53622 77.957 7.51719C78.4933 6.47135 79.204 5.64005 80.0889 5.02327C80.9738 4.37968 81.9392 3.89698 82.9851 3.57518C84.0309 3.25339 85.0633 3.03886 86.0824 2.93159C87.1014 2.79751 88.0132 2.73047 88.8176 2.73047C90.8021 2.73047 92.5451 3.1059 94.0468 3.85676C95.5486 4.5808 96.7553 5.65345 97.667 7.07472C98.6056 8.49599 99.1688 10.2122 99.3565 12.2235H92.3172C92.2367 11.6335 91.9954 11.1374 91.5931 10.7352C91.1909 10.3061 90.668 9.9843 90.0244 9.76977C89.4076 9.52842 88.6836 9.40775 87.8523 9.40775C87.3696 9.40775 86.9137 9.44797 86.4846 9.52842C86.0556 9.60887 85.6801 9.72954 85.3583 9.89044C85.0634 10.0513 84.822 10.2525 84.6343 10.4938C84.4466 10.7352 84.3527 11.0167 84.3527 11.3385C84.3527 11.7676 84.5136 12.1296 84.8354 12.4246C85.184 12.7196 85.6801 12.9743 86.3237 13.1889C86.9941 13.4034 87.812 13.6313 88.7774 13.8727C89.2333 13.9799 89.6758 14.0872 90.1048 14.1945C90.5339 14.2749 90.963 14.3688 91.392 14.476C92.5719 14.7442 93.6714 15.0526 94.6904 15.4012C95.7363 15.7498 96.648 16.2057 97.4257 16.7688C98.2302 17.332 98.8604 18.0963 99.3163 19.0616C99.7721 20.0002 100 21.207 100 22.6819C100 24.3713 99.6783 25.806 99.0347 26.9859C98.3911 28.139 97.5196 29.0776 96.4201 29.8016C95.3206 30.5256 94.0871 31.062 92.7194 31.4106C91.3518 31.7324 89.9573 31.8933 88.5361 31.8933Z" fill="#1E2124"/>
<path d="M58.3315 31.8933C55.4353 31.8933 52.9012 31.2899 50.729 30.0832C48.5569 28.8764 46.8675 27.187 45.6608 25.0149C44.4808 22.8159 43.8909 20.2684 43.8909 17.3722C43.8909 14.3956 44.5076 11.8212 45.7412 9.6491C46.9748 7.45015 48.691 5.74731 50.8899 4.54057C53.0889 3.33384 55.6364 2.73047 58.5326 2.73047C61.402 2.73047 63.9227 3.32043 66.0948 4.50035C68.267 5.68027 69.9698 7.35629 71.2033 9.52842C72.4369 11.6737 73.0537 14.2213 73.0537 17.1711C73.0537 20.0673 72.4369 22.6282 71.2033 24.854C69.9966 27.0529 68.2804 28.7826 66.0546 30.043C63.8557 31.2765 61.2813 31.8933 58.3315 31.8933ZM58.4924 25.0149C60.2086 25.0149 61.5897 24.626 62.6355 23.8484C63.6814 23.0439 64.4322 22.0517 64.8881 20.8718C65.3708 19.6918 65.6121 18.5253 65.6121 17.3722C65.6121 16.5141 65.4781 15.6426 65.2099 14.7576C64.9685 13.8459 64.5663 13.0011 64.0032 12.2235C63.4668 11.4458 62.7428 10.8156 61.831 10.3329C60.9193 9.85022 59.793 9.60887 58.4522 9.60887C56.7627 9.60887 55.3951 9.99771 54.3493 10.7754C53.3034 11.5262 52.5392 12.4916 52.0565 13.6716C51.5738 14.8515 51.3324 16.0716 51.3324 17.332C51.3324 18.5924 51.5738 19.8125 52.0565 20.9924C52.566 22.1723 53.3436 23.1377 54.3895 23.8886C55.4621 24.6395 56.8298 25.0149 58.4924 25.0149Z" fill="#1E2124"/>
</svg>
