<svg width="50" height="51" viewBox="0 0 50 51" fill="none" xmlns="http://www.w3.org/2000/svg">
<g clip-path="url(#clip0_2788_2757)">
<path d="M30.4688 25.8479H25.7812C25.574 25.8479 25.3753 25.9302 25.2288 26.0767C25.0823 26.2232 25 26.422 25 26.6292C25 26.8364 25.0823 27.0351 25.2288 27.1816C25.3753 27.3281 25.574 27.4104 25.7812 27.4104H28.7145L17.1875 40.2182V37.5667C17.1875 37.3595 17.1052 37.1607 16.9587 37.0142C16.8122 36.8677 16.6135 36.7854 16.4062 36.7854C16.199 36.7854 16.0003 36.8677 15.8538 37.0142C15.7073 37.1607 15.625 37.3595 15.625 37.5667V42.2542C15.625 42.4614 15.7073 42.6601 15.8538 42.8066C16.0003 42.9531 16.199 43.0354 16.4062 43.0354H21.0938C21.301 43.0354 21.4997 42.9531 21.6462 42.8066C21.7927 42.6601 21.875 42.4614 21.875 42.2542C21.875 42.047 21.7927 41.8482 21.6462 41.7017C21.4997 41.5552 21.301 41.4729 21.0938 41.4729H18.1604L29.6875 28.6651V31.3167C29.6875 31.5239 29.7698 31.7226 29.9163 31.8691C30.0628 32.0156 30.2615 32.0979 30.4688 32.0979C30.676 32.0979 30.8747 32.0156 31.0212 31.8691C31.1677 31.7226 31.25 31.5239 31.25 31.3167V26.6292C31.25 26.422 31.1677 26.2232 31.0212 26.0767C30.8747 25.9302 30.676 25.8479 30.4688 25.8479Z" fill="#1E2124"/>
<path d="M14.8438 49.2855H14.0144C13.7663 47.2014 12.5509 45.2701 10.8668 44.266C11.3627 43.9876 11.7754 43.5821 12.0625 43.0912C12.3495 42.6003 12.5006 42.0417 12.5 41.473V35.223C12.4991 34.3945 12.1695 33.6002 11.5837 33.0143C10.9978 32.4285 10.2035 32.0989 9.375 32.098H5.46875C4.51579 32.0846 3.57869 31.8522 2.72988 31.4188C2.61102 31.3514 2.47657 31.3164 2.33994 31.3172C2.2033 31.3179 2.06926 31.3545 1.95116 31.4232C1.83306 31.4919 1.73503 31.5904 1.66683 31.7088C1.59864 31.8272 1.56267 31.9614 1.5625 32.098V36.0043C1.56311 36.4888 1.71361 36.9612 1.99336 37.3567C2.27311 37.7523 2.6684 38.0516 3.125 38.2136V41.473C3.12443 42.0417 3.27546 42.6003 3.56252 43.0912C3.84959 43.5821 4.26231 43.9876 4.7582 44.266C3.07412 45.2701 1.85869 47.2014 1.61064 49.2855H0.78125C0.57405 49.2855 0.375336 49.3678 0.228823 49.5143C0.08231 49.6608 0 49.8596 0 50.0668C0 50.274 0.08231 50.4727 0.228823 50.6192C0.375336 50.7657 0.57405 50.848 0.78125 50.848H14.8438C15.051 50.848 15.2497 50.7657 15.3962 50.6192C15.5427 50.4727 15.625 50.274 15.625 50.0668C15.625 49.8596 15.5427 49.6608 15.3962 49.5143C15.2497 49.3678 15.051 49.2855 14.8438 49.2855Z" fill="#1E2124"/>
<path d="M46.5897 11.7854H49.219C49.4262 11.7854 49.625 11.7031 49.7715 11.5566C49.918 11.4101 50.0003 11.2114 50.0003 11.0042V7.87916C50.0003 1.63053 42.4234 -1.49125 38.0127 2.89713C41.3166 4.53531 40.5164 8.14752 40.6259 8.66041C40.452 12.4959 41.102 14.1316 39.7935 16.0449C40.7533 17.047 41.4574 18.2658 41.846 19.5979H49.219C49.4262 19.5979 49.625 19.5156 49.7715 19.3691C49.918 19.2226 50.0003 19.0239 50.0003 18.8167C50.0003 18.6095 49.918 18.4107 49.7715 18.2642C49.625 18.1177 49.4262 18.0354 49.219 18.0354H48.4341C48.356 15.135 47.0533 13.647 45.7865 12.8857C46.143 12.5928 46.4194 12.2142 46.5897 11.7854Z" fill="#1E2124"/>
<path d="M41.4062 21.1604H40.5774C40.3294 19.0764 39.114 17.145 37.43 16.1409C37.9259 15.8625 38.3386 15.457 38.6256 14.9661C38.9127 14.4752 39.0637 13.9166 39.0631 13.3479V8.66044H39.0625V7.09892C39.0616 6.2704 38.732 5.47609 38.1462 4.89024C37.5603 4.30439 36.766 3.97485 35.9375 3.97392H32.0312C31.0783 3.96052 30.1412 3.72813 29.2924 3.29472C29.1735 3.22716 29.0391 3.19196 28.9024 3.19264C28.7657 3.19332 28.6315 3.22986 28.5134 3.2986C28.3952 3.36735 28.2972 3.4659 28.229 3.5844C28.1609 3.70291 28.125 3.83722 28.125 3.97392V7.88017C28.1256 8.36476 28.2762 8.83729 28.556 9.2329C28.8359 9.62852 29.2313 9.92782 29.6881 10.0897V13.3479C29.6875 13.9166 29.8386 14.4752 30.1256 14.9661C30.4127 15.457 30.8255 15.8626 31.3214 16.1409C29.6373 17.145 28.4219 19.0764 28.1738 21.1604H27.3438C27.1365 21.1604 26.9378 21.2428 26.7913 21.3893C26.6448 21.5358 26.5625 21.7345 26.5625 21.9417C26.5625 22.1489 26.6448 22.3476 26.7913 22.4941C26.9378 22.6406 27.1365 22.7229 27.3438 22.7229H41.4062C41.6135 22.7229 41.8122 22.6406 41.9587 22.4941C42.1052 22.3476 42.1875 22.1489 42.1875 21.9417C42.1875 21.7345 42.1052 21.5358 41.9587 21.3893C41.8122 21.2428 41.6135 21.1604 41.4062 21.1604Z" fill="#1E2124"/>
<path d="M28.958 16.0449C27.7442 14.27 28.2415 12.6527 28.1256 11.0041C27.6409 10.64 27.2474 10.1683 26.9762 9.6262C26.7049 9.08408 26.5633 8.48637 26.5625 7.88018V3.97393C26.5628 3.65816 26.6268 3.34569 26.7508 3.05527C26.8747 2.76484 27.056 2.50243 27.2839 2.28376C27.5117 2.0651 27.7813 1.89468 28.0765 1.78273C28.3718 1.67077 28.6866 1.61958 29.0021 1.63223C24.3711 -0.765232 18.75 2.59502 18.75 7.8792V11.0042C18.75 11.2114 18.8323 11.4101 18.9788 11.5566C19.1253 11.7031 19.324 11.7855 19.5312 11.7855H22.2191C22.4187 12.1851 22.6874 12.5462 23.0128 12.8522C21.7312 13.6019 20.3927 15.0897 20.3104 18.0355H19.5312C19.324 18.0355 19.1253 18.1178 18.9788 18.2643C18.8323 18.4108 18.75 18.6095 18.75 18.8167C18.75 19.0239 18.8323 19.2226 18.9788 19.3691C19.1253 19.5156 19.324 19.598 19.5312 19.598H26.9055C27.2941 18.2659 27.9982 17.0471 28.958 16.0449Z" fill="#1E2124"/>
</g>
<defs>
<clipPath id="clip0_2788_2757">
<rect width="50" height="50" fill="white" transform="translate(0 0.8479)"/>
</clipPath>
</defs>
</svg>
