<svg width="830" height="300" viewBox="0 0 830 300" fill="none" xmlns="http://www.w3.org/2000/svg">
<g clip-path="url(#clip0_2160_5871)">
<path d="M0 37.098C41.5 42.723 124.5 45.123 207.5 65.223C290.5 85.32 332 112.068 415 137.588C498 163.107 539.5 172.394 622.5 192.818C705.5 213.243 788.5 230.333 830 239.712V300H0V37.098Z" fill="#B9BFC5"/>
<path d="M0 37.098C41.5 42.723 124.5 45.123 207.5 65.223C290.5 85.32 332 112.068 415 137.588C498 163.107 539.5 172.394 622.5 192.818C705.5 213.243 788.5 230.333 830 239.712" stroke="#3A4046" stroke-width="2"/>
<path d="M-0.959961 46.098C4.0106 46.098 8.04004 42.0686 8.04004 37.098C8.04004 32.1275 4.0106 28.098 -0.959961 28.098C-5.93052 28.098 -9.95996 32.1275 -9.95996 37.098C-9.95996 42.0686 -5.93052 46.098 -0.959961 46.098Z" fill="#3A4046"/>
<path d="M206.54 74.2216C211.511 74.2216 215.54 70.1921 215.54 65.2216C215.54 60.251 211.511 56.2216 206.54 56.2216C201.569 56.2216 197.54 60.251 197.54 65.2216C197.54 70.1921 201.569 74.2216 206.54 74.2216Z" fill="#3A4046"/>
<path d="M414.04 146.588C419.011 146.588 423.04 142.558 423.04 137.588C423.04 132.617 419.011 128.588 414.04 128.588C409.069 128.588 405.04 132.617 405.04 137.588C405.04 142.558 409.069 146.588 414.04 146.588Z" fill="#3A4046"/>
<path d="M621.54 201.818C626.511 201.818 630.54 197.788 630.54 192.818C630.54 187.847 626.511 183.818 621.54 183.818C616.569 183.818 612.54 187.847 612.54 192.818C612.54 197.788 616.569 201.818 621.54 201.818Z" fill="#3A4046"/>
<path d="M829.04 248.712C834.011 248.712 838.04 244.682 838.04 239.712C838.04 234.741 834.011 230.712 829.04 230.712C824.069 230.712 820.04 234.741 820.04 239.712C820.04 244.682 824.069 248.712 829.04 248.712Z" fill="#3A4046"/>
</g>
<defs>
<clipPath id="clip0_2160_5871">
<rect width="830" height="300" fill="white"/>
</clipPath>
</defs>
</svg>
