<svg width="40" height="40" viewBox="0 0 40 40" fill="none" xmlns="http://www.w3.org/2000/svg">
<path d="M8.50038 30.125C8.50038 27.375 9.50038 24.875 11.0004 23C10.3754 22.75 9.62538 22.625 9.00038 22.625C5.37538 22.625 2.37538 25.625 2.37538 29.25C2.25038 30 2.87538 30.625 3.62538 30.625H8.37538C8.50038 30.5 8.50038 30.25 8.50038 30.125Z" fill="#1E2124"/>
<path d="M9.1247 21.875C10.9997 21.875 12.6247 20.75 13.2497 19.125C12.2497 17.75 11.7497 16.125 11.7497 14.25C11.7497 14.125 11.7497 14 11.7497 13.75C10.9997 13.25 10.1247 12.875 9.1247 12.875C6.6247 12.875 4.7497 14.875 4.7497 17.375C4.6247 19.875 6.6247 21.875 9.1247 21.875Z" fill="#1E2124"/>
<path d="M30.875 22.625C30.125 22.625 29.5 22.75 28.875 23C30.5 25 31.375 27.375 31.375 30.125V30.625H36.25C37 30.625 37.625 30 37.5 29.25C37.5 25.625 34.5 22.625 30.875 22.625Z" fill="#1E2124"/>
<path d="M30.875 21.875C33.375 21.875 35.25 19.875 35.25 17.375C35.25 14.875 33.25 12.875 30.875 12.875C29.875 12.875 29 13.125 28.25 13.75V14.25C28.25 16 27.625 17.75 26.75 19.125C27.5 20.75 29 21.875 30.875 21.875Z" fill="#1E2124"/>
<path d="M20.0004 21.25C15.1254 21.25 11.0004 25.25 11.0004 30.25C10.8754 31 11.5004 31.75 12.2504 31.75H27.6254C28.3754 31.75 29.0004 31 28.8754 30.25C29.0004 25.25 24.8754 21.25 20.0004 21.25Z" fill="#1E2124"/>
<path d="M20 20.125C23.25 20.125 25.875 17.5 25.875 14.25C25.875 11 23.25 8.375 20 8.375C16.75 8.375 14.125 11 14.125 14.25C14.125 17.5 16.75 20.125 20 20.125Z" fill="#1E2124"/>
</svg>
