<svg width="30" height="30" viewBox="0 0 30 30" fill="none" xmlns="http://www.w3.org/2000/svg">
<g clip-path="url(#clip0_2870_2770)">
<path d="M29.1211 0H0.878906C0.393448 0 0 0.393448 0 0.878906V4.45312C0 4.93858 0.393448 5.33203 0.878906 5.33203H29.1211C29.6066 5.33203 30 4.93858 30 4.45312V0.878906C30 0.393448 29.6066 0 29.1211 0Z" fill="#1E2124"/>
<path d="M24.2278 10.4768C26.6191 13.3688 27.0403 17.2508 25.6468 20.481L28.2428 23.649V7.08984H18.2949C20.6233 7.45674 22.7126 8.64418 24.2278 10.4768Z" fill="#1E2124"/>
<path d="M18.8663 26.074C18.1858 26.2246 17.4873 26.3022 16.7832 26.3022C13.8851 26.3022 11.1669 25.0253 9.32556 22.7985C5.9285 18.69 6.50711 12.5839 10.6155 9.18686C11.952 8.08182 13.559 7.36084 15.2511 7.08984H1.75781V27.3047C1.75781 27.7901 2.15126 28.1836 2.63672 28.1836H20.595L18.8663 26.074Z" fill="#1E2124"/>
<path d="M16.7828 24.5442C14.504 24.5442 12.242 23.5673 10.6799 21.6781C7.90035 18.3168 8.37391 13.321 11.7353 10.5414C13.3635 9.19493 15.4189 8.56344 17.5223 8.76257C19.6257 8.96192 21.5257 9.96855 22.872 11.5968C25.6515 14.9582 25.178 19.9542 21.8166 22.7335C20.3444 23.9509 18.5587 24.5442 16.7828 24.5442Z" fill="#1E2124"/>
<path d="M27.6404 25.6871L24.7304 22.1357C24.2371 22.8499 23.6388 23.5086 22.9378 24.0883C22.244 24.6619 21.4761 25.1318 20.6602 25.4889L23.5738 29.0445C24.0945 29.6742 24.8485 29.9999 25.6081 29.9999C26.2 29.9999 26.7953 29.8021 27.2861 29.3963C27.8287 28.9475 28.1643 28.3142 28.2307 27.6131C28.2973 26.9118 28.0867 26.2268 27.6404 25.6871Z" fill="#1E2124"/>
</g>
<defs>
<clipPath id="clip0_2870_2770">
<rect width="30" height="30" fill="white"/>
</clipPath>
</defs>
</svg>
