<svg width="50" height="50" viewBox="0 0 50 50" fill="none" xmlns="http://www.w3.org/2000/svg">
<path d="M25 30.8594C33.09 30.8594 39.6484 24.301 39.6484 16.2109C39.6484 8.1209 33.09 1.5625 25 1.5625C16.91 1.5625 10.3516 8.1209 10.3516 16.2109C10.3516 20.8381 12.5396 24.914 15.8899 27.5985L13.2812 30.8594H25ZM26.4648 26.4648H23.5352V23.5352H26.4648V26.4648ZM25 5.95703C28.2315 5.95703 30.8594 8.58486 30.8594 11.8164C30.8594 14.1968 29.4374 16.3226 27.2373 17.2323C26.7753 17.424 26.4648 17.939 26.4648 18.5155V20.6055H23.5352V18.5155C23.5352 16.7402 24.5494 15.1738 26.1187 14.5259C27.2187 14.0709 27.9297 13.0066 27.9297 11.8164C27.9297 10.2014 26.615 8.88672 25 8.88672C23.385 8.88672 22.0703 10.2014 22.0703 11.8164H19.1406C19.1406 8.58486 21.7685 5.95703 25 5.95703Z" fill="#1E2124"/>
<path d="M5.63604 45.1766L3.02734 48.4374H14.7461C19.3642 48.4374 23.4329 46.2573 26.1178 42.9183C22.7033 40.8292 20.0606 37.6162 18.7013 33.789H7.18584L11.9223 27.8695C10.0839 25.8298 8.83145 23.3978 8.11367 20.7969C3.375 23.2229 0 28.0996 0 33.789C0 38.4161 2.28564 42.492 5.63604 45.1766Z" fill="#1E2124"/>
<path d="M42.5311 15.2876C42.5472 15.5953 42.5777 15.8991 42.5777 16.2108C42.5777 25.904 34.6928 33.789 24.9996 33.789H21.8418C24.1042 38.9581 29.2501 42.578 35.2535 42.578H46.9723L44.3636 39.3172C47.714 36.6326 49.9996 32.5567 49.9996 27.9296C49.9996 22.5024 46.9165 17.8186 42.5311 15.2876Z" fill="#1E2124"/>
</svg>
