<svg width="50" height="51" viewBox="0 0 50 51" fill="none" xmlns="http://www.w3.org/2000/svg">
<g clip-path="url(#clip0_2789_2770)">
<path d="M21.9084 35.3C20.9857 34.3772 19.4078 35.0308 19.4078 36.3358V38.805H9.25718L11.8583 34.2997C12.2627 33.5991 12.0227 32.7032 11.3221 32.2987L7.48989 30.0861C6.78931 29.6816 5.89341 29.9217 5.48892 30.6223L0.662061 38.9827C-0.196045 40.469 -0.232959 42.3106 0.627197 43.7956C1.48472 45.2761 3.01753 46.1598 4.72896 46.1598L19.4079 46.1597V48.6288C19.4079 49.9339 20.9857 50.5874 21.9085 49.6647L28.055 43.5181C28.6271 42.946 28.6271 42.0186 28.055 41.4465L21.9084 35.3Z" fill="black"/>
<path d="M33.9704 12.3963L29.1052 3.96934C28.2483 2.48525 26.7136 1.59912 24.9999 1.59912C23.2862 1.59912 21.7515 2.48516 20.8946 3.96934L13.5552 16.6817L11.4168 15.4472C10.2866 14.7946 8.93165 15.8343 9.26944 17.0949L11.5192 25.4912C11.7286 26.2727 12.5318 26.7364 13.3133 26.5271L21.7096 24.2772C22.9701 23.9395 23.1931 22.2463 22.0629 21.5937L19.9246 20.3592L24.9997 11.5685L27.6009 16.0737C28.0054 16.7743 28.9013 17.0145 29.6019 16.6099L33.4342 14.3973C34.1349 13.9928 34.3749 13.097 33.9704 12.3963Z" fill="black"/>
<path d="M49.3575 39.0492L42.0183 26.3369L44.1565 25.1024C45.2867 24.4498 45.0638 22.7566 43.8032 22.4189L35.4069 20.1692C34.6255 19.9598 33.8223 20.4236 33.6129 21.205L31.3632 29.6012C31.0254 30.8617 32.3804 31.9014 33.5106 31.249L35.6488 30.0144L40.7242 38.8051H35.5217C34.7127 38.8051 34.0568 39.461 34.0568 40.2699V44.695C34.0568 45.504 34.7127 46.1599 35.5217 46.1599H45.2524C46.9661 46.1599 48.5009 45.2739 49.3577 43.7897C50.2144 42.3054 50.2145 40.5333 49.3575 39.0492Z" fill="black"/>
</g>
<defs>
<clipPath id="clip0_2789_2770">
<rect width="50" height="50" fill="white" transform="translate(0 0.8479)"/>
</clipPath>
</defs>
</svg>
